<mxfile host="app.diagrams.net" modified="2021-08-07T16:56:35.765Z" agent="5.0 (Windows NT 10.0; Win64; x64) AppleWebKit/537.36 (KHTML, like Gecko) Chrome/92.0.4515.131 Safari/537.36" etag="u6xL8xjXBZA1t-0nyhs-" version="14.9.5" type="github">
  <diagram id="OuMrV5W5th5_P0Pk-f4Q" name="Page-1">
    <mxGraphModel dx="1102" dy="582" grid="1" gridSize="10" guides="1" tooltips="1" connect="1" arrows="1" fold="1" page="1" pageScale="1" pageWidth="850" pageHeight="1100" math="0" shadow="0">
      <root>
        <mxCell id="0" />
        <mxCell id="1" parent="0" />
        <mxCell id="GjwMq-wNP7jpY3cGJWTH-1" value="" style="image;html=1;image=img/lib/clip_art/networking/Router_Icon_128x128.png" parent="1" vertex="1">
          <mxGeometry x="270" y="375" width="80" height="80" as="geometry" />
        </mxCell>
        <mxCell id="FNlNjOd5ppucLsPkhMiX-1" style="edgeStyle=orthogonalEdgeStyle;rounded=1;orthogonalLoop=1;jettySize=auto;html=1;exitX=0.91;exitY=0.5;exitDx=0;exitDy=0;exitPerimeter=0;endArrow=none;endFill=0;" edge="1" parent="1" source="GjwMq-wNP7jpY3cGJWTH-2">
          <mxGeometry relative="1" as="geometry">
            <mxPoint x="200" y="75" as="targetPoint" />
          </mxGeometry>
        </mxCell>
        <mxCell id="GjwMq-wNP7jpY3cGJWTH-2" value="" style="html=1;outlineConnect=0;fillColor=#CCCCCC;strokeColor=#6881B3;gradientColor=none;gradientDirection=north;strokeWidth=2;shape=mxgraph.networks.cloud;fontColor=#ffffff;" parent="1" vertex="1">
          <mxGeometry x="50" y="50" width="90" height="50" as="geometry" />
        </mxCell>
        <mxCell id="FNlNjOd5ppucLsPkhMiX-8" style="edgeStyle=orthogonalEdgeStyle;rounded=1;orthogonalLoop=1;jettySize=auto;html=1;exitX=0.5;exitY=0.07;exitDx=0;exitDy=0;exitPerimeter=0;endArrow=none;endFill=0;" edge="1" parent="1" source="GjwMq-wNP7jpY3cGJWTH-3" target="GjwMq-wNP7jpY3cGJWTH-10">
          <mxGeometry relative="1" as="geometry" />
        </mxCell>
        <mxCell id="GjwMq-wNP7jpY3cGJWTH-3" value="" style="fontColor=#0066CC;verticalAlign=top;verticalLabelPosition=bottom;labelPosition=center;align=center;html=1;outlineConnect=0;fillColor=#CCCCCC;strokeColor=#6881B3;gradientColor=none;gradientDirection=north;strokeWidth=2;shape=mxgraph.networks.pc;" parent="1" vertex="1">
          <mxGeometry x="700" y="200" width="100" height="70" as="geometry" />
        </mxCell>
        <mxCell id="GjwMq-wNP7jpY3cGJWTH-4" value="" style="fontColor=#0066CC;verticalAlign=top;verticalLabelPosition=bottom;labelPosition=center;align=center;html=1;outlineConnect=0;fillColor=#CCCCCC;strokeColor=#6881B3;gradientColor=none;gradientDirection=north;strokeWidth=2;shape=mxgraph.networks.modem;" parent="1" vertex="1">
          <mxGeometry x="60" y="400" width="100" height="30" as="geometry" />
        </mxCell>
        <mxCell id="FNlNjOd5ppucLsPkhMiX-2" style="edgeStyle=orthogonalEdgeStyle;rounded=1;orthogonalLoop=1;jettySize=auto;html=1;exitX=1;exitY=0.5;exitDx=0;exitDy=0;endArrow=none;endFill=0;" edge="1" parent="1" source="GjwMq-wNP7jpY3cGJWTH-5" target="GjwMq-wNP7jpY3cGJWTH-18">
          <mxGeometry relative="1" as="geometry" />
        </mxCell>
        <mxCell id="GjwMq-wNP7jpY3cGJWTH-5" value="" style="image;html=1;image=img/lib/clip_art/networking/Firewall_02_128x128.png" parent="1" vertex="1">
          <mxGeometry x="190" y="35" width="80" height="80" as="geometry" />
        </mxCell>
        <mxCell id="FNlNjOd5ppucLsPkhMiX-5" style="edgeStyle=orthogonalEdgeStyle;rounded=1;orthogonalLoop=1;jettySize=auto;html=1;exitX=0.5;exitY=1;exitDx=0;exitDy=0;endArrow=none;endFill=0;" edge="1" parent="1" source="GjwMq-wNP7jpY3cGJWTH-8" target="GjwMq-wNP7jpY3cGJWTH-9">
          <mxGeometry relative="1" as="geometry" />
        </mxCell>
        <mxCell id="GjwMq-wNP7jpY3cGJWTH-8" value="" style="image;html=1;image=img/lib/clip_art/computers/Server_128x128.png" parent="1" vertex="1">
          <mxGeometry x="480" y="35" width="80" height="80" as="geometry" />
        </mxCell>
        <mxCell id="FNlNjOd5ppucLsPkhMiX-6" style="edgeStyle=orthogonalEdgeStyle;rounded=1;orthogonalLoop=1;jettySize=auto;html=1;exitX=0.5;exitY=0;exitDx=0;exitDy=0;exitPerimeter=0;endArrow=none;endFill=0;" edge="1" parent="1" source="GjwMq-wNP7jpY3cGJWTH-9" target="GjwMq-wNP7jpY3cGJWTH-10">
          <mxGeometry relative="1" as="geometry" />
        </mxCell>
        <mxCell id="FNlNjOd5ppucLsPkhMiX-7" style="edgeStyle=orthogonalEdgeStyle;rounded=1;orthogonalLoop=1;jettySize=auto;html=1;exitX=0.5;exitY=1;exitDx=0;exitDy=0;exitPerimeter=0;endArrow=none;endFill=0;" edge="1" parent="1" source="GjwMq-wNP7jpY3cGJWTH-9" target="GjwMq-wNP7jpY3cGJWTH-15">
          <mxGeometry relative="1" as="geometry" />
        </mxCell>
        <mxCell id="GjwMq-wNP7jpY3cGJWTH-9" value="" style="shape=mxgraph.cisco.switches.multiswitch_device;html=1;pointerEvents=1;dashed=0;fillColor=#036897;strokeColor=#ffffff;strokeWidth=2;verticalLabelPosition=bottom;verticalAlign=top;align=center;outlineConnect=0;" parent="1" vertex="1">
          <mxGeometry x="600" y="43" width="101" height="64" as="geometry" />
        </mxCell>
        <mxCell id="GjwMq-wNP7jpY3cGJWTH-10" value="" style="shape=mxgraph.cisco.switches.multiswitch_device;html=1;pointerEvents=1;dashed=0;fillColor=#036897;strokeColor=#ffffff;strokeWidth=2;verticalLabelPosition=bottom;verticalAlign=top;align=center;outlineConnect=0;" parent="1" vertex="1">
          <mxGeometry x="720" y="43" width="101" height="64" as="geometry" />
        </mxCell>
        <mxCell id="GjwMq-wNP7jpY3cGJWTH-11" value="" style="fontColor=#0066CC;verticalAlign=top;verticalLabelPosition=bottom;labelPosition=center;align=center;html=1;outlineConnect=0;fillColor=#CCCCCC;strokeColor=#6881B3;gradientColor=none;gradientDirection=north;strokeWidth=2;shape=mxgraph.networks.pc;" parent="1" vertex="1">
          <mxGeometry x="700" y="310" width="100" height="70" as="geometry" />
        </mxCell>
        <mxCell id="GjwMq-wNP7jpY3cGJWTH-12" value="" style="fontColor=#0066CC;verticalAlign=top;verticalLabelPosition=bottom;labelPosition=center;align=center;html=1;outlineConnect=0;fillColor=#CCCCCC;strokeColor=#6881B3;gradientColor=none;gradientDirection=north;strokeWidth=2;shape=mxgraph.networks.pc;" parent="1" vertex="1">
          <mxGeometry x="540" y="305" width="100" height="70" as="geometry" />
        </mxCell>
        <mxCell id="GjwMq-wNP7jpY3cGJWTH-13" value="" style="fontColor=#0066CC;verticalAlign=top;verticalLabelPosition=bottom;labelPosition=center;align=center;html=1;outlineConnect=0;fillColor=#CCCCCC;strokeColor=#6881B3;gradientColor=none;gradientDirection=north;strokeWidth=2;shape=mxgraph.networks.pc;" parent="1" vertex="1">
          <mxGeometry x="540" y="400" width="100" height="70" as="geometry" />
        </mxCell>
        <mxCell id="GjwMq-wNP7jpY3cGJWTH-14" value="" style="fontColor=#0066CC;verticalAlign=top;verticalLabelPosition=bottom;labelPosition=center;align=center;html=1;outlineConnect=0;fillColor=#CCCCCC;strokeColor=#6881B3;gradientColor=none;gradientDirection=north;strokeWidth=2;shape=mxgraph.networks.pc;" parent="1" vertex="1">
          <mxGeometry x="701" y="400" width="100" height="70" as="geometry" />
        </mxCell>
        <mxCell id="GjwMq-wNP7jpY3cGJWTH-15" value="" style="fontColor=#0066CC;verticalAlign=top;verticalLabelPosition=bottom;labelPosition=center;align=center;html=1;outlineConnect=0;fillColor=#CCCCCC;strokeColor=#6881B3;gradientColor=none;gradientDirection=north;strokeWidth=2;shape=mxgraph.networks.pc;" parent="1" vertex="1">
          <mxGeometry x="540" y="200" width="100" height="70" as="geometry" />
        </mxCell>
        <mxCell id="FNlNjOd5ppucLsPkhMiX-4" style="edgeStyle=orthogonalEdgeStyle;rounded=1;orthogonalLoop=1;jettySize=auto;html=1;exitX=0.5;exitY=0;exitDx=0;exitDy=0;exitPerimeter=0;endArrow=none;endFill=0;" edge="1" parent="1" source="GjwMq-wNP7jpY3cGJWTH-16" target="GjwMq-wNP7jpY3cGJWTH-8">
          <mxGeometry relative="1" as="geometry" />
        </mxCell>
        <mxCell id="GjwMq-wNP7jpY3cGJWTH-16" value="" style="outlineConnect=0;dashed=0;verticalLabelPosition=bottom;verticalAlign=top;align=center;html=1;shape=mxgraph.aws3.classic_load_balancer;fillColor=#F58534;gradientColor=none;" parent="1" vertex="1">
          <mxGeometry x="391" y="53" width="69" height="72" as="geometry" />
        </mxCell>
        <mxCell id="GjwMq-wNP7jpY3cGJWTH-17" value="Load Balancer" style="text;html=1;resizable=0;autosize=1;align=center;verticalAlign=middle;points=[];fillColor=none;strokeColor=none;rounded=0;" parent="1" vertex="1">
          <mxGeometry x="279.5" y="130" width="90" height="20" as="geometry" />
        </mxCell>
        <mxCell id="FNlNjOd5ppucLsPkhMiX-3" style="edgeStyle=orthogonalEdgeStyle;rounded=1;orthogonalLoop=1;jettySize=auto;html=1;exitX=0.5;exitY=0;exitDx=0;exitDy=0;exitPerimeter=0;endArrow=none;endFill=0;" edge="1" parent="1" source="GjwMq-wNP7jpY3cGJWTH-18" target="GjwMq-wNP7jpY3cGJWTH-16">
          <mxGeometry relative="1" as="geometry" />
        </mxCell>
        <mxCell id="GjwMq-wNP7jpY3cGJWTH-18" value="" style="outlineConnect=0;dashed=0;verticalLabelPosition=bottom;verticalAlign=top;align=center;html=1;shape=mxgraph.aws3.classic_load_balancer;fillColor=#F58534;gradientColor=none;" parent="1" vertex="1">
          <mxGeometry x="300" y="53" width="69" height="72" as="geometry" />
        </mxCell>
        <mxCell id="GjwMq-wNP7jpY3cGJWTH-19" value="Load Balancer" style="text;html=1;resizable=0;autosize=1;align=center;verticalAlign=middle;points=[];fillColor=none;strokeColor=none;rounded=0;" parent="1" vertex="1">
          <mxGeometry x="380.5" y="130" width="90" height="20" as="geometry" />
        </mxCell>
      </root>
    </mxGraphModel>
  </diagram>
</mxfile>
